<svg width="15" height="12" viewBox="0 0 15 12" fill="none" xmlns="http://www.w3.org/2000/svg">
<path fill-rule="evenodd" clip-rule="evenodd" d="M12.0002 12C13.4729 12 14.6668 10.8061 14.6668 9.33333V3.34846C14.6671 3.33826 14.6671 3.32804 14.6668 3.3178V2.66667C14.6668 1.19391 13.4729 0 12.0002 0H2.66684C1.19408 0 0.000177324 1.19391 0.000177324 2.66667V3.3178C-5.9664e-05 3.32804 -5.85514e-05 3.33826 0.000177324 3.34845V9.33333C0.000177324 10.8061 1.19408 12 2.66684 12H12.0002ZM1.33351 9.33333C1.33351 10.0697 1.93046 10.6667 2.66684 10.6667H12.0002C12.7366 10.6667 13.3335 10.0697 13.3335 9.33333V4.31802L8.32389 6.32187C7.68812 6.57618 6.9789 6.57618 6.34314 6.32187L1.33351 4.31802V9.33333ZM7.8287 5.0839L13.3335 2.88198V2.66667C13.3335 1.93029 12.7366 1.33333 12.0002 1.33333H2.66684C1.93046 1.33333 1.33351 1.93029 1.33351 2.66667V2.88198L6.83832 5.0839C7.1562 5.21106 7.51082 5.21106 7.8287 5.0839Z" fill="#667185"/>
</svg>
