<svg width="16" height="16" viewBox="0 0 16 16" fill="none" xmlns="http://www.w3.org/2000/svg">
<g clip-path="url(#clip0_1_6487)">
<path d="M10.667 14V12.6667C10.667 11.9594 10.386 11.2811 9.88594 10.781C9.38585 10.281 8.70757 10 8.00033 10H3.33366C2.62641 10 1.94814 10.281 1.44804 10.781C0.947944 11.2811 0.666992 11.9594 0.666992 12.6667V14" stroke="#FF9F1C" stroke-width="1.5" stroke-linecap="round" stroke-linejoin="round"/>
<path d="M5.66667 7.33333C7.13943 7.33333 8.33333 6.13943 8.33333 4.66667C8.33333 3.19391 7.13943 2 5.66667 2C4.19391 2 3 3.19391 3 4.66667C3 6.13943 4.19391 7.33333 5.66667 7.33333Z" stroke="#FF9F1C" stroke-width="1.5" stroke-linecap="round" stroke-linejoin="round"/>
<path d="M11.333 7.33333L12.6663 8.66667L15.333 6" stroke="#ADADAD" stroke-width="1.5" stroke-linecap="round" stroke-linejoin="round"/>
</g>
<defs>
<clipPath id="clip0_1_6487">
<rect width="16" height="16" fill="white"/>
</clipPath>
</defs>
</svg>
