<svg width="14" height="14" viewBox="0 0 14 14" fill="none" xmlns="http://www.w3.org/2000/svg">
<path d="M12.15 8.95002C12.5467 8.16461 12.7523 7.2966 12.75 6.41669V6.08335C12.6733 4.69379 12.0868 3.38132 11.1028 2.39726C10.1187 1.41319 8.80623 0.82668 7.41667 0.750019H7.08333C6.20342 0.747725 5.33541 0.953306 4.55 1.35002C3.60884 1.8204 2.81722 2.54352 2.26381 3.43839C1.71041 4.33325 1.41707 5.36452 1.41667 6.41669C1.41437 7.2966 1.61995 8.16461 2.01667 8.95002L0.75 12.75L4.55 11.4834C5.33541 11.8801 6.20342 12.0856 7.08333 12.0834C8.1355 12.0829 9.16677 11.7896 10.0616 11.2362C10.9565 10.6828 11.6796 9.89118 12.15 8.95002Z" stroke="#ADADAD" stroke-width="1.5" stroke-linecap="round" stroke-linejoin="round"/>
</svg>
