<svg width="20" height="20" viewBox="0 0 20 20" fill="none" xmlns="http://www.w3.org/2000/svg">
<path d="M1.51681 14.9997L8.57514 3.21635C8.7237 2.97144 8.93287 2.76895 9.18248 2.62842C9.43208 2.48789 9.71369 2.41406 10.0001 2.41406C10.2866 2.41406 10.5682 2.48789 10.8178 2.62842C11.0674 2.76895 11.2766 2.97144 11.4251 3.21635L18.4835 14.9997C18.629 15.2517 18.706 15.5374 18.7068 15.8284C18.7076 16.1195 18.6322 16.4056 18.4881 16.6585C18.344 16.9113 18.1362 17.122 17.8854 17.2696C17.6346 17.4171 17.3495 17.4965 17.0585 17.4997H2.94181C2.65081 17.4965 2.36571 17.4171 2.1149 17.2696C1.86408 17.122 1.65627 16.9113 1.51216 16.6585C1.36805 16.4056 1.29265 16.1195 1.29346 15.8284C1.29428 15.5374 1.37128 15.2517 1.51681 14.9997Z" stroke="#BDBDBD" stroke-linecap="round" stroke-linejoin="round"/>
<path d="M10 7.5V10.8333" stroke="#BDBDBD" stroke-linecap="round" stroke-linejoin="round"/>
<path d="M10 14.166H10.0083" stroke="#BDBDBD" stroke-linecap="round" stroke-linejoin="round"/>
</svg>
