<svg width="14" height="14" viewBox="0 0 14 14" fill="none" xmlns="http://www.w3.org/2000/svg">
<path d="M11.4967 10.3945C12.1938 9.49294 12.6197 8.41147 12.7245 7.27667C11.8257 7.94106 10.7182 8.26077 9.6036 8.17765C8.48896 8.09452 7.44117 7.61409 6.65081 6.82373C5.86045 6.03337 5.38002 4.98559 5.2969 3.87094C5.21378 2.7563 5.53349 1.64884 6.19788 0.75C5.06307 0.85487 3.98161 1.28076 3.08002 1.97784C2.17843 2.67491 1.49401 3.61434 1.10685 4.6862C0.719688 5.75806 0.645794 6.91801 0.893815 8.03033C1.14184 9.14266 1.70151 10.1613 2.50736 10.9672C3.31321 11.773 4.33189 12.3327 5.44421 12.5807C6.55653 12.8287 7.71649 12.7549 8.78835 12.3677C9.8602 11.9805 10.7996 11.2961 11.4967 10.3945Z" stroke="#ADADAD" stroke-width="1.5" stroke-linecap="round" stroke-linejoin="round"/>
</svg>
