<svg width="16" height="16" viewBox="0 0 16 16" fill="none" xmlns="http://www.w3.org/2000/svg">
<g clip-path="url(#clip0_1_6544)">
<path d="M5.33301 11.3335L7.99967 14.0002L10.6663 11.3335" stroke="#FF9F1C" stroke-width="1.5" stroke-linecap="round" stroke-linejoin="round"/>
<path d="M8 8V14" stroke="#FF9F1C" stroke-width="1.5" stroke-linecap="round" stroke-linejoin="round"/>
<path d="M13.9185 12.0619C14.4978 11.6545 14.9322 11.0732 15.1587 10.4023C15.3852 9.73134 15.392 9.00568 15.1781 8.33061C14.9642 7.65555 14.5408 7.0662 13.9692 6.64809C13.3977 6.22998 12.7078 6.00487 11.9997 6.00542H11.1602C10.9598 5.22446 10.5848 4.49914 10.0635 3.88405C9.54227 3.26897 8.88826 2.78015 8.15073 2.4544C7.4132 2.12866 6.61139 1.97447 5.80565 2.00344C4.99991 2.03242 4.21124 2.24381 3.49901 2.62169C2.78679 2.99957 2.16957 3.5341 1.69383 4.18504C1.21808 4.83598 0.896203 5.58637 0.752427 6.3797C0.60865 7.17304 0.646722 7.98866 0.863774 8.76516C1.08083 9.54165 1.47121 10.2588 2.00552 10.8626" stroke="#ADADAD" stroke-width="1.5" stroke-linecap="round" stroke-linejoin="round"/>
</g>
<defs>
<clipPath id="clip0_1_6544">
<rect width="16" height="16" fill="white"/>
</clipPath>
</defs>
</svg>
