<svg width="18" height="18" viewBox="0 0 18 18" fill="none" xmlns="http://www.w3.org/2000/svg">
<path d="M14.625 8.625L16.625 8.625M14.625 8.625C14.625 7.52043 13.7296 6.625 12.625 6.625C11.5204 6.625 10.625 7.52043 10.625 8.625M14.625 8.625C14.625 9.72957 13.7296 10.625 12.625 10.625C11.5204 10.625 10.625 9.72957 10.625 8.625M2.625 2.625C2.625 3.72957 3.52043 4.625 4.625 4.625C5.72957 4.625 6.625 3.72957 6.625 2.625M2.625 2.625C2.625 1.52043 3.52043 0.624999 4.625 0.624999C5.72957 0.625 6.625 1.52043 6.625 2.625M2.625 2.625L0.625 2.625M6.625 2.625L16.625 2.625M10.625 8.625L0.625 8.625M2.625 14.625C2.625 15.7296 3.52043 16.625 4.625 16.625C5.72957 16.625 6.625 15.7296 6.625 14.625M2.625 14.625C2.625 13.5204 3.52043 12.625 4.625 12.625C5.72957 12.625 6.625 13.5204 6.625 14.625M2.625 14.625L0.624999 14.625M6.625 14.625L16.625 14.625" stroke="#76BB08" stroke-width="1.25" stroke-linecap="round" stroke-linejoin="round"/>
</svg>
