<svg width="17" height="20" viewBox="0 0 17 20" fill="none" xmlns="http://www.w3.org/2000/svg">
<path fill-rule="evenodd" clip-rule="evenodd" d="M6.57316 16.9845C7.03093 17.4944 7.6186 17.7745 8.22837 17.7745H8.22925C8.84167 17.7745 9.43199 17.4944 9.89065 16.9836C10.1363 16.7123 10.5552 16.6902 10.8265 16.935C11.0987 17.1798 11.1208 17.5995 10.876 17.8708C10.1619 18.6635 9.22255 19.1001 8.22925 19.1001H8.22748C7.23683 19.0992 6.2992 18.6627 5.58781 17.87C5.34302 17.5987 5.36511 17.1789 5.6373 16.935C5.90948 16.6893 6.32837 16.7114 6.57316 16.9845ZM8.27238 0.100098C12.2005 0.100098 14.8393 3.15954 14.8393 6.01661C14.8393 7.48624 15.2131 8.10926 15.6099 8.77028C16.0023 9.42247 16.4468 10.163 16.4468 11.5628C16.1384 15.1393 12.4047 15.4309 8.27238 15.4309C4.1401 15.4309 0.405493 15.1393 0.100598 11.6194C0.0979583 10.163 0.54247 9.42247 0.934842 8.77028L1.07336 8.53712C1.41441 7.95095 1.70545 7.31334 1.70545 6.01661C1.70545 3.15954 4.34424 0.100098 8.27238 0.100098ZM8.27238 1.42568C5.18377 1.42568 3.03103 3.84531 3.03103 6.01661C3.03103 7.85387 2.52112 8.70312 2.07042 9.45252C1.70898 10.0543 1.42354 10.5298 1.42354 11.5628C1.57112 13.2295 2.67135 14.1053 8.27238 14.1053C13.8425 14.1053 14.9772 13.1907 15.1239 11.5054C15.1212 10.5298 14.8358 10.0543 14.4743 9.45252C14.0236 8.70312 13.5137 7.85387 13.5137 6.01661C13.5137 3.84531 11.361 1.42568 8.27238 1.42568Z" fill="#76BB08"/>
<path fill-rule="evenodd" clip-rule="evenodd" d="M9.89042 16.9835C9.43177 17.4943 8.84144 17.7744 8.22902 17.7744C7.61926 17.7744 7.0307 17.4943 6.57293 16.9844C6.32814 16.7113 5.90926 16.6892 5.63707 16.9349C5.36488 17.1788 5.34279 17.5986 5.58758 17.8699C6.29898 18.6626 7.2366 19.0991 8.22726 19.1H8.22902C9.22233 19.1 10.1617 18.6634 10.8758 17.8707C11.1206 17.5994 11.0985 17.1797 10.8263 16.9349C10.555 16.6901 10.1361 16.7122 9.89042 16.9835ZM10.95 17.9377C10.2186 18.7497 9.25294 19.2 8.22902 19.2H8.22726C7.20605 19.1991 6.24208 18.7488 5.51334 17.9369C5.23157 17.6246 5.25687 17.1416 5.57007 16.8606C5.88334 16.5779 6.36564 16.6033 6.64739 16.9176C7.08875 17.4092 7.65041 17.6744 8.22814 17.6744C8.8087 17.6744 9.37388 17.4091 9.81601 16.9167C10.0985 16.6047 10.5808 16.5787 10.8933 16.8606C11.2064 17.1423 11.2319 17.6253 10.95 17.9377ZM16.5462 11.5713C16.4675 12.4836 16.1695 13.1931 15.696 13.7413C15.2234 14.2885 14.5817 14.6684 13.8263 14.9323C12.3194 15.4587 10.3363 15.5308 8.27215 15.5308C6.20795 15.5308 4.22484 15.4587 2.71841 14.9395C1.96325 14.6793 1.32184 14.3048 0.849517 13.7657C0.376245 13.2254 0.0785693 12.5264 0.000743611 11.6279L1.18374e-05 11.6195C-0.00267597 10.1364 0.452862 9.37696 0.848769 8.7189C0.848716 8.71899 0.848821 8.71881 0.848769 8.7189L0.986699 8.48673C0.986626 8.48686 0.986772 8.48661 0.986699 8.48673C1.32028 7.91335 1.60522 7.29252 1.60522 6.01651C1.60522 3.10185 4.29118 0 8.27215 0C12.2531 0 14.9391 3.10185 14.9391 6.01651C14.9391 6.74249 15.0314 7.25453 15.1703 7.66448C15.3095 8.07517 15.4968 8.38779 15.6954 8.71872C16.0909 9.37605 16.5466 10.1356 16.5466 11.5627L16.5462 11.5713ZM0.934615 8.77019C0.542243 9.42237 0.0977312 10.1629 0.100371 11.6193C0.405266 15.1392 4.13987 15.4308 8.27215 15.4308C12.4044 15.4308 16.1382 15.1392 16.4466 11.5627C16.4466 10.1629 16.0021 9.42237 15.6097 8.77019C15.2129 8.10916 14.8391 7.48614 14.8391 6.01651C14.8391 3.15944 12.2003 0.1 8.27215 0.1C4.34401 0.1 1.70522 3.15944 1.70522 6.01651C1.70522 7.31324 1.41419 7.95085 1.07313 8.53702L0.934615 8.77019ZM8.27215 1.52558C5.23369 1.52558 3.1308 3.90539 3.1308 6.01651C3.1308 6.94483 3.00191 7.62757 2.8141 8.17487C2.62656 8.72135 2.38142 9.12896 2.15616 9.50351C1.97478 9.80552 1.818 10.0672 1.70529 10.3798C1.59352 10.6898 1.52372 11.054 1.52331 11.5583C1.55963 11.9634 1.65307 12.311 1.85121 12.6076C2.04959 12.9046 2.35888 13.1593 2.84219 13.3671C3.81511 13.7855 5.47175 14.0052 8.27215 14.0052C11.0567 14.0052 12.7141 13.7758 13.6914 13.3457C14.177 13.132 14.4899 12.8707 14.6912 12.5672C14.8921 12.2642 14.9875 11.9105 15.0236 11.5011C15.0219 11.0261 14.9517 10.6764 14.8396 10.3734C14.7265 10.0675 14.5698 9.80599 14.3884 9.50391C14.1631 9.12936 13.9177 8.72135 13.7302 8.17487C13.5424 7.62757 13.4135 6.94483 13.4135 6.01651C13.4135 3.90539 11.3106 1.52558 8.27215 1.52558ZM14.4741 9.45242C14.8355 10.0542 15.121 10.5297 15.1236 11.5053C14.9769 13.1906 13.8422 14.1052 8.27215 14.1052C2.67113 14.1052 1.57089 13.2294 1.42331 11.5627C1.42331 10.5297 1.70875 10.0542 2.0702 9.45242C2.52089 8.70302 3.0308 7.85377 3.0308 6.01651C3.0308 3.84521 5.18355 1.42558 8.27215 1.42558C11.3608 1.42558 13.5135 3.84521 13.5135 6.01651C13.5135 7.85377 14.0234 8.70302 14.4741 9.45242Z" fill="#76BB08"/>
</svg>
