<svg width="16" height="19" viewBox="0 0 16 19" fill="none" xmlns="http://www.w3.org/2000/svg">
<path d="M15.4976 4.20155L8.50236 0.135509C8.34961 0.0467356 8.17635 0 7.99997 0C7.8236 0 7.65033 0.0467356 7.49759 0.135509L0.502385 4.20155C0.349546 4.29038 0.222644 4.41817 0.134452 4.57205C0.0462593 4.72594 -0.000112945 4.90049 2.06576e-07 5.07815V13.2082C-0.000112945 13.3859 0.0462593 13.5604 0.134452 13.7143C0.222644 13.8682 0.349546 13.996 0.502385 14.0848L7.49759 18.1509C7.65033 18.2396 7.8236 18.2864 7.99997 18.2864C8.17635 18.2864 8.34961 18.2396 8.50236 18.1509L15.4976 14.0848C15.6504 13.996 15.7773 13.8682 15.8655 13.7143C15.9537 13.5604 16.0001 13.3859 15.9999 13.2082V5.07747C15.9999 4.89993 15.9535 4.72552 15.8653 4.57176C15.7771 4.41801 15.6503 4.29033 15.4976 4.20155Z" fill="#3A94E7"/>
<path d="M8.50238 18.1502L15.4976 14.0842C15.6504 13.9953 15.7773 13.8675 15.8655 13.7137C15.9537 13.5598 16.0001 13.3852 16 13.2076V5.0775C16.0001 4.89984 15.9537 4.72529 15.8655 4.5714C15.7773 4.41752 15.6504 4.28974 15.4976 4.20091L8.50238 0.134861C8.34958 0.0463142 8.17632 -0.000196614 8 6.24718e-07V18.2857C8.17638 18.2857 8.34964 18.239 8.50238 18.1502Z" fill="#2A7DF3"/>
<path d="M11.3496 8.58207L8.83836 4.78979C8.74642 4.65096 8.6218 4.53718 8.47559 4.45859C8.32938 4.38 8.16613 4.33904 8.00038 4.33936C7.83497 4.33937 7.67213 4.38049 7.5263 4.45907C7.38046 4.53764 7.25616 4.65125 7.16441 4.78979L4.65115 8.58207C4.54113 8.74821 4.48242 8.94342 4.48242 9.14309C4.48242 9.34276 4.54113 9.53797 4.65115 9.70411L7.1624 13.4964C7.25434 13.6352 7.37896 13.749 7.52517 13.8276C7.67138 13.9062 7.83463 13.9471 8.00038 13.9468C8.16579 13.9468 8.32864 13.9057 8.47447 13.8271C8.6203 13.7485 8.7446 13.6349 8.83635 13.4964L11.3496 9.70411C11.4596 9.53797 11.5183 9.34276 11.5183 9.14309C11.5183 8.94342 11.4596 8.74821 11.3496 8.58207Z" fill="#D0EFFF"/>
<path d="M8 13.9468C8.16541 13.9468 8.32825 13.9057 8.47409 13.8271C8.61992 13.7485 8.74422 13.6349 8.83597 13.4964L11.3492 9.70411C11.4592 9.53797 11.518 9.34276 11.518 9.14309C11.518 8.94342 11.4592 8.74821 11.3492 8.58207L8.83798 4.78979C8.74604 4.65096 8.62142 4.53718 8.47521 4.45859C8.329 4.38 8.16575 4.33904 8 4.33936V13.9468Z" fill="#8AC7FF"/>
</svg>
