<svg width="16" height="16" viewBox="0 0 16 16" fill="none" xmlns="http://www.w3.org/2000/svg">
<path d="M10.8284 2.50458C11.5786 3.25473 12 4.27214 12 5.33301C12 9.99967 14 11.333 14 11.333H2C2 11.333 4 9.99967 4 5.33301C4 4.27214 4.42143 3.25473 5.17157 2.50458C5.92172 1.75444 6.93913 1.33301 8 1.33301C9.06087 1.33301 10.0783 1.75444 10.8284 2.50458Z" stroke="#ADADAD" stroke-width="1.5" stroke-linecap="round" stroke-linejoin="round"/>
<path d="M9.15335 14C9.03614 14.2021 8.86791 14.3698 8.6655 14.4864C8.46309 14.6029 8.2336 14.6643 8.00001 14.6643C7.76643 14.6643 7.53694 14.6029 7.33453 14.4864C7.13212 14.3698 6.96389 14.2021 6.84668 14" stroke="#ADADAD" stroke-width="2" stroke-linecap="round" stroke-linejoin="round"/>
</svg>
