<svg width="16" height="16" viewBox="0 0 16 16" fill="none" xmlns="http://www.w3.org/2000/svg">
<g clip-path="url(#clip0_1_6579)">
<path d="M8 10C9.10457 10 10 9.10457 10 8C10 6.89543 9.10457 6 8 6C6.89543 6 6 6.89543 6 8C6 9.10457 6.89543 10 8 10Z" stroke="#ADADAD" stroke-width="1.5" stroke-linecap="round" stroke-linejoin="round"/>
<path d="M12.8577 10.6402C12.8184 10.424 12.8449 10.2009 12.9337 9.99984C13.0182 9.80266 13.1585 9.63449 13.3373 9.51604C13.5162 9.39759 13.7258 9.33403 13.9403 9.33317H14.0003C14.3539 9.33317 14.6931 9.19269 14.9431 8.94265C15.1932 8.6926 15.3337 8.35346 15.3337 7.99984C15.3337 7.64621 15.1932 7.30708 14.9431 7.05703C14.6931 6.80698 14.3539 6.6665 14.0003 6.6665H13.887C13.6725 6.66565 13.4629 6.60208 13.284 6.48363C13.1052 6.36518 12.9648 6.19702 12.8803 5.99984V5.9465C12.7916 5.74543 12.7651 5.52237 12.8043 5.30611C12.8435 5.08985 12.9466 4.89029 13.1003 4.73317L13.1403 4.69317C13.2643 4.56934 13.3626 4.42229 13.4297 4.26042C13.4968 4.09856 13.5314 3.92506 13.5314 3.74984C13.5314 3.57462 13.4968 3.40111 13.4297 3.23925C13.3626 3.07739 13.2643 2.93033 13.1403 2.8065C13.0165 2.68254 12.8694 2.58419 12.7076 2.51709C12.5457 2.44999 12.3722 2.41545 12.197 2.41545C12.0218 2.41545 11.8483 2.44999 11.6864 2.51709C11.5245 2.58419 11.3775 2.68254 11.2537 2.8065L11.2137 2.8465C11.0565 3.0002 10.857 3.10329 10.6407 3.14251C10.4245 3.18172 10.2014 3.15525 10.0003 3.0665C9.80315 2.982 9.63498 2.84167 9.51653 2.66281C9.39808 2.48395 9.33451 2.27436 9.33366 2.05984V1.99984C9.33366 1.64622 9.19318 1.30708 8.94313 1.05703C8.69309 0.80698 8.35395 0.666504 8.00033 0.666504C7.6467 0.666504 7.30756 0.80698 7.05752 1.05703C6.80747 1.30708 6.66699 1.64622 6.66699 1.99984V2.11317C6.66614 2.32769 6.60257 2.53729 6.48412 2.71615C6.36567 2.89501 6.1975 3.03533 6.00033 3.11984H5.94699C5.74591 3.20858 5.52286 3.23505 5.3066 3.19584C5.09034 3.15663 4.89078 3.05353 4.73366 2.89984L4.69366 2.85984C4.56983 2.73587 4.42278 2.63752 4.26091 2.57042C4.09905 2.50333 3.92555 2.46879 3.75033 2.46879C3.5751 2.46879 3.4016 2.50333 3.23974 2.57042C3.07787 2.63752 2.93082 2.73587 2.80699 2.85984C2.68302 2.98367 2.58468 3.13072 2.51758 3.29258C2.45048 3.45445 2.41594 3.62795 2.41594 3.80317C2.41594 3.97839 2.45048 4.15189 2.51758 4.31376C2.58468 4.47562 2.68302 4.62267 2.80699 4.7465L2.84699 4.7865C3.00068 4.94362 3.10378 5.14318 3.143 5.35944C3.18221 5.57571 3.15574 5.79876 3.06699 5.99984C2.9908 6.20699 2.85405 6.38644 2.67452 6.51484C2.495 6.64325 2.28099 6.71468 2.06033 6.71984H2.00033C1.6467 6.71984 1.30756 6.86031 1.05752 7.11036C0.807468 7.36041 0.666992 7.69955 0.666992 8.05317C0.666992 8.40679 0.807468 8.74593 1.05752 8.99598C1.30756 9.24603 1.6467 9.3865 2.00033 9.3865H2.11366C2.32818 9.38736 2.53778 9.45092 2.71664 9.56938C2.8955 9.68783 3.03582 9.85599 3.12033 10.0532C3.20907 10.2542 3.23554 10.4773 3.19633 10.6936C3.15712 10.9098 3.05402 11.1094 2.90033 11.2665L2.86033 11.3065C2.73636 11.4303 2.63801 11.5774 2.57091 11.7392C2.50381 11.9011 2.46928 12.0746 2.46928 12.2498C2.46928 12.4251 2.50381 12.5986 2.57091 12.7604C2.63801 12.9223 2.73636 13.0693 2.86033 13.1932C2.98416 13.3171 3.13121 13.4155 3.29307 13.4826C3.45494 13.5497 3.62844 13.5842 3.80366 13.5842C3.97888 13.5842 4.15238 13.5497 4.31425 13.4826C4.47611 13.4155 4.62316 13.3171 4.74699 13.1932L4.78699 13.1532C4.94411 12.9995 5.14367 12.8964 5.35993 12.8572C5.5762 12.818 5.79925 12.8444 6.00033 12.9332C6.20748 13.0094 6.38693 13.1461 6.51533 13.3256C6.64374 13.5052 6.71516 13.7192 6.72032 13.9398V13.9998C6.72032 14.3535 6.8608 14.6926 7.11085 14.9426C7.3609 15.1927 7.70004 15.3332 8.05366 15.3332C8.40728 15.3332 8.74642 15.1927 8.99647 14.9426C9.24652 14.6926 9.38699 14.3535 9.38699 13.9998V13.8865C9.38785 13.672 9.45141 13.4624 9.56986 13.2835C9.68831 13.1047 9.85648 12.9643 10.0537 12.8798C10.2547 12.7911 10.4778 12.7646 10.6941 12.8038C10.9103 12.843 11.1099 12.9461 11.267 13.0998L11.307 13.1398C11.4308 13.2638 11.5779 13.3622 11.7397 13.4292C11.9016 13.4963 12.0751 13.5309 12.2503 13.5309C12.4255 13.5309 12.599 13.4963 12.7609 13.4292C12.9228 13.3622 13.0698 13.2638 13.1937 13.1398C13.3176 13.016 13.416 12.869 13.4831 12.7071C13.5502 12.5452 13.5847 12.3717 13.5847 12.1965C13.5847 12.0213 13.5502 11.8478 13.4831 11.6859C13.416 11.5241 13.3176 11.377 13.1937 11.2532L13.1537 11.2132C13 11.0561 12.8969 10.8565 12.8577 10.6402Z" stroke="#FF9F1C" stroke-width="1.5" stroke-linecap="round" stroke-linejoin="round"/>
</g>
<defs>
<clipPath id="clip0_1_6579">
<rect width="16" height="16" fill="white"/>
</clipPath>
</defs>
</svg>
