<svg width="21" height="21" viewBox="0 0 21 21" fill="none" xmlns="http://www.w3.org/2000/svg">
<circle cx="10.25" cy="10.25" r="10" fill="#F3F8F8" stroke="#D9E8E8" stroke-width="0.5"/>
<path fill-rule="evenodd" clip-rule="evenodd" d="M8.78959 8.6375C9.23503 8.63083 9.64267 8.74721 9.97513 9.01851C10.2648 8.79047 10.6474 8.67743 11.0093 8.64462C11.4318 8.60633 11.9541 8.66868 12.3163 8.9044C12.348 8.92506 12.3788 8.94691 12.4084 8.96996C12.4401 8.94143 12.4734 8.91429 12.5081 8.88878C12.8235 8.65696 13.2451 8.59285 13.6272 8.58712C13.942 8.58246 14.3206 8.60331 14.61 8.73814C14.6672 8.76484 14.7229 8.79469 14.7764 8.8282C14.9016 8.74778 15.04 8.68996 15.1843 8.64922L15.2255 8.41073L14.7765 8.15409C14.6549 8.08463 14.5909 7.95553 14.6095 7.81673C14.628 7.67786 14.7235 7.57005 14.8591 7.53491L16.5276 7.10238C16.6218 7.07795 16.7121 7.09231 16.794 7.14483L18.0945 7.97732C18.211 8.05195 18.2684 8.18168 18.245 8.31815C18.2217 8.45456 18.1246 8.5579 17.9898 8.58952L17.888 8.61345C17.8871 8.63473 17.8848 8.65583 17.881 8.67655C17.9004 8.74192 17.9053 8.8117 17.8948 8.88028C17.9243 8.93847 17.9417 9.00252 17.946 9.07614C17.9514 9.16789 17.9315 9.26097 17.8902 9.34278C17.8975 9.46168 17.8855 9.57995 17.8802 9.70181L17.8392 10.6317C17.8316 10.8047 17.8366 10.987 17.7895 11.1547C17.7756 11.2041 17.7521 11.248 17.7211 11.2844C17.6843 11.6162 17.5211 11.9006 17.2631 12.1291C16.9114 12.4406 16.4309 12.5358 15.9742 12.5426C15.7424 12.546 15.5056 12.5268 15.2797 12.4689C15.0878 12.5679 14.8446 12.5914 14.6401 12.5585C14.4479 12.5276 14.2732 12.446 14.1432 12.3165C14.0752 12.3596 14.0041 12.3982 13.9298 12.4315C13.7239 12.524 13.5055 12.571 13.2796 12.5744C12.9694 12.579 12.6683 12.5138 12.4157 12.3424C12.0862 12.5565 11.679 12.6265 11.2895 12.6322C10.8674 12.6385 10.4271 12.5686 10.07 12.3299C10.0491 12.316 10.0287 12.3016 10.0085 12.2868L9.98861 12.3014C9.67901 12.5242 9.31028 12.6118 8.93337 12.6174C8.47528 12.6242 8.0454 12.5182 7.70494 12.2448L7.68454 12.2599C7.37495 12.4828 7.00615 12.5703 6.6293 12.5759C6.08014 12.5841 5.57186 12.4304 5.21012 12.0217C5.22845 12.1801 5.24753 12.3386 5.26856 12.4967C5.28015 12.5835 5.29167 12.7008 5.31233 12.7902C5.3185 12.8039 5.32386 12.8182 5.32839 12.833C5.3714 12.9753 5.3202 13.1226 5.19822 13.2075C4.99039 13.3521 4.67753 13.3957 4.4185 13.3863C4.15601 13.4518 3.75958 13.371 3.58488 13.2058C3.55635 13.1795 3.53229 13.1487 3.51365 13.1143C3.4537 13.0041 3.461 12.8749 3.52348 12.7748C3.53796 12.6921 3.54552 12.5892 3.55276 12.5175C3.57247 12.3231 3.5879 12.1279 3.60226 11.933C3.61983 11.6959 3.63545 11.4586 3.64993 11.2213C3.6488 11.0808 3.65296 10.9462 3.67638 10.8076C3.68167 10.5782 3.64817 10.3204 3.61674 10.0948C3.57688 9.80912 3.52713 9.51893 3.46944 9.23389L2.34518 9.29964C2.24599 9.30544 2.15839 9.27231 2.08786 9.20222C2.01739 9.13219 1.98363 9.04477 1.9888 8.94552C2.02331 8.28093 2.28422 7.86276 2.99157 7.82139L6.39389 7.62238C6.5007 7.61615 6.59517 7.65538 6.66608 7.73549C6.73693 7.81559 6.76445 7.91415 6.7453 8.01939C6.7106 8.21008 6.68604 8.4157 6.6111 8.59745C7.02757 8.61357 7.40669 8.74368 7.71622 9.01524C8.01825 8.76812 8.38157 8.64355 8.78959 8.6375Z" stroke="#3AAFE4" stroke-width="0.157956" stroke-miterlimit="2.613"/>
<path fill-rule="evenodd" clip-rule="evenodd" d="M4.00488 12.9358C4.27934 12.9457 4.50271 12.9447 4.79253 12.9121C4.78674 12.9405 4.79801 13.0276 4.78328 13.0474C4.78668 13.0921 4.78875 13.0939 4.75342 13.1178C4.59019 13.228 4.37947 13.2987 4.20294 13.2359C4.15974 13.2317 4.05035 13.1643 4.01918 13.1342C4.01634 13.0876 4.01779 12.9891 4.00488 12.9358Z" fill="#433E93"/>
<path d="M6.30543 9.70269H6.30549C6.34107 9.64998 6.38881 9.60432 6.44744 9.57044C6.65715 9.44902 6.92701 9.52302 7.05013 9.73569C7.17331 9.94837 7.10309 10.2192 6.89338 10.3406C6.83084 10.3769 6.76308 10.3957 6.69538 10.3986H6.69437C6.68984 10.3988 6.68536 10.399 6.68083 10.399C5.53182 10.4357 5.68504 10.5922 6.30543 9.70269ZM6.93702 11.525C6.85124 11.5991 6.74072 11.6345 6.60973 11.6365C6.41891 11.6393 6.2575 11.5727 6.12758 11.4366C5.99665 11.3004 5.92675 11.1086 5.91699 10.861C6.48006 10.8526 7.46306 10.9209 7.8891 10.6513C7.97273 10.3456 7.89351 9.73865 7.59576 9.40752C7.31904 9.10095 6.94628 8.95119 6.47735 8.95825C6.05919 8.96448 5.71527 9.11783 5.44667 9.41936C5.17808 9.71982 5.04715 10.1329 5.05502 10.6567C5.06157 11.0962 5.17153 11.458 5.38395 11.7431C5.65217 12.0985 6.06189 12.2721 6.61099 12.2639C6.95711 12.2587 7.24624 12.1755 7.47421 12.0114C7.66692 11.8726 7.91782 11.5198 7.95856 11.3032C7.25253 11.126 7.1876 11.3077 6.93702 11.525Z" fill="#3AAFE4"/>
<path d="M8.60919 9.7232C8.64484 9.67049 8.69251 9.62483 8.75114 9.59095C8.96086 9.46953 9.23071 9.54353 9.35383 9.7562C9.47701 9.96887 9.4068 10.2397 9.19708 10.3612C9.13461 10.3974 9.06678 10.4162 8.99908 10.4192H8.99808C8.99354 10.4193 8.98907 10.4195 8.98454 10.4195C7.83553 10.4563 7.98875 10.6127 8.60919 9.7232ZM9.24073 11.5455C9.15501 11.6196 9.04443 11.655 8.9135 11.657C8.72268 11.6598 8.56121 11.5932 8.43128 11.4571C8.30036 11.3209 8.23045 11.1291 8.22069 10.8815C8.78383 10.8732 9.76677 10.9414 10.1928 10.6718C10.2765 10.3661 10.1972 9.75916 9.89946 9.42803C9.6228 9.12146 9.24998 8.9717 8.78106 8.97875C8.36289 8.98499 8.01898 9.13834 7.75038 9.43987C7.48178 9.74033 7.35092 10.1534 7.35873 10.6772C7.36528 11.1167 7.4753 11.4785 7.68766 11.7636C7.95587 12.119 8.3656 12.2926 8.91476 12.2844C9.26088 12.2792 9.54994 12.196 9.77798 12.0319C9.97069 11.8931 10.2216 11.5403 10.2623 11.3237C9.55624 11.1465 9.49131 11.3282 9.24073 11.5455Z" fill="#644A9B"/>
<path d="M9.74121 11.3762C10.479 11.1157 10.5805 11.4136 10.8024 11.5999C11.0159 11.7792 11.5289 11.7566 11.7485 11.5929C11.8208 11.5359 11.8795 11.457 11.8548 11.3669C11.6926 10.7763 9.854 11.1781 9.83649 10.0083C9.8324 9.73324 9.93757 9.50117 10.1509 9.31117C10.3644 9.12117 10.698 9.0228 11.1516 9.01606C11.584 9.00957 11.9069 9.07582 12.1191 9.21374C12.3313 9.35267 12.4796 9.55961 12.5629 9.83551C12.2535 9.90844 11.9583 9.93439 11.5823 9.71113C11.3791 9.59041 10.8929 9.59104 10.7012 9.71819C10.6379 9.76277 10.6073 9.82008 10.6083 9.88911C10.6092 9.949 10.6374 9.99931 10.6939 10.0401C10.7708 10.0949 11.0329 10.169 11.481 10.2639C11.9291 10.3587 12.2425 10.4779 12.4214 10.6224C12.5992 10.768 12.6895 10.9748 12.6936 11.2407C12.6978 11.53 12.5808 11.7815 12.3413 11.9932C12.1028 12.2049 11.7461 12.3148 11.2711 12.3218C10.8407 12.3283 10.4984 12.2461 10.2441 12.0763C9.99079 11.9065 9.82283 11.6734 9.74121 11.3762Z" fill="#ED3491"/>
<path fill-rule="evenodd" clip-rule="evenodd" d="M14.9287 7.83628L16.6439 7.3916L17.9809 8.24746L16.328 8.63577L14.9287 7.83628Z" fill="#3D418F"/>
<path fill-rule="evenodd" clip-rule="evenodd" d="M17.2733 8.63097L17.1733 9.30426C16.9443 8.87614 16.002 8.7716 15.4912 8.85624L15.5976 8.24083C15.6863 7.72833 17.4696 7.94805 17.2733 8.63097Z" fill="#F5863C"/>
<path d="M13.4648 11.6603C13.4605 11.6617 13.4563 11.6631 13.4519 11.6645L13.451 11.6648C13.3862 11.6848 13.316 11.6899 13.245 11.6769C13.0066 11.6334 12.8492 11.402 12.8935 11.1602C12.9377 10.9185 13.1668 10.7578 13.4052 10.8014C13.4718 10.8137 13.5321 10.8405 13.5834 10.8782C14.4674 11.5064 14.5589 11.3074 13.4648 11.6603ZM15.12 12.0429C14.947 11.6349 14.9734 11.4485 14.9686 11.1204L14.9673 10.6114C14.9608 10.6077 15.0663 9.61786 14.7545 9.27854C14.679 9.1973 14.5786 9.12765 14.4536 9.06921C14.2696 8.98362 13.9909 8.94414 13.6184 8.94974C13.2083 8.95585 12.8998 9.03457 12.6939 9.18584C12.4881 9.33717 12.3443 9.56773 12.2637 9.87751C13.0958 10.1374 13.5678 9.13798 14.211 9.67133C14.5401 9.94408 13.6056 10.2798 13.3355 10.3346C13.047 10.3947 12.8268 10.4631 12.6746 10.5394C12.5214 10.6159 12.4043 10.7252 12.3211 10.8656C12.2379 11.0069 12.1977 11.1668 12.2003 11.3445C12.2044 11.6145 12.3011 11.8364 12.4905 12.0092C12.6799 12.183 12.937 12.2675 13.2608 12.2627C13.4445 12.2599 13.6165 12.2218 13.7779 12.1494C13.9392 12.0769 14.0899 11.9701 14.2299 11.8279C14.2362 11.843 14.2469 11.8753 14.2608 11.9249C14.384 12.3241 14.9678 12.3213 15.1729 12.1549C15.1537 12.117 15.1361 12.0797 15.12 12.0429Z" fill="#FFCB00"/>
<path d="M14.4258 11.2854C15.1636 11.0249 15.2651 11.3228 15.487 11.5092C15.7005 11.6884 16.2134 11.6659 16.4331 11.5021C16.5053 11.4452 16.564 11.3662 16.5393 11.2762C16.3771 10.6855 14.5386 11.0873 14.5211 9.91749C14.517 9.64241 14.6221 9.4104 14.8355 9.2204C15.0489 9.0304 15.3825 8.93203 15.8362 8.92523C16.2686 8.91881 16.5914 8.98506 16.8036 9.12298C17.0158 9.2619 17.1641 9.46885 17.2474 9.74475C16.938 9.81767 16.6429 9.84362 16.2669 9.6203C16.0637 9.49964 15.5775 9.50027 15.3857 9.62742C15.3225 9.67201 15.2918 9.72932 15.2929 9.79834C15.2938 9.85823 15.3219 9.90855 15.3784 9.94936C15.4553 10.004 15.7174 10.0783 16.1655 10.1731C16.6137 10.268 16.9271 10.3871 17.1059 10.5316C17.2837 10.6772 17.3741 10.884 17.3781 11.1499C17.3824 11.4392 17.2653 11.6907 17.0258 11.9024C16.7874 12.1141 16.4306 12.224 15.9557 12.2311C15.5253 12.2375 15.183 12.1553 14.9287 11.9855C14.6754 11.8157 14.5074 11.5827 14.4258 11.2854Z" fill="#3C489A"/>
<path fill-rule="evenodd" clip-rule="evenodd" d="M17.5901 8.96223L17.4021 8.9541C17.2609 9.04044 17.2901 9.1999 17.3661 9.25551C17.3209 9.36502 17.3244 9.58368 17.3187 9.71473L17.276 10.6843C17.2719 10.7757 17.2459 11.078 17.2847 11.1404L17.3255 11.1391L17.3287 11.0984L17.3376 11.1223C17.3384 11.1269 17.3389 11.1362 17.3394 11.1426L17.4156 11.1461L17.4245 11.0449C17.4336 11.067 17.4253 11.1339 17.4471 11.1477L17.485 11.1493C17.4788 11.0194 17.4601 10.1235 17.4954 9.96922C17.4997 9.94989 17.5014 9.9502 17.5092 9.94517C17.5131 9.95203 17.5107 9.94561 17.5134 9.95663L17.5146 10.0927C17.5115 10.2806 17.4788 11.0604 17.5202 11.1287C17.5555 11.003 17.5527 10.8068 17.5588 10.6694L17.6009 9.71347C17.6071 9.5714 17.6291 9.39437 17.5935 9.26477C17.6339 9.24134 17.6732 9.17994 17.6688 9.10594C17.6633 9.01204 17.598 8.98106 17.5901 8.96223Z" fill="#3D418F"/>
<path fill-rule="evenodd" clip-rule="evenodd" d="M17.4013 8.88298L17.5947 8.89105C17.6471 8.82171 17.6189 8.73058 17.5547 8.70363L17.4556 8.69922C17.4229 8.70829 17.3952 8.73682 17.3831 8.77303C17.3706 8.81094 17.3773 8.86214 17.4013 8.88298Z" fill="#3C489A"/>
<path fill-rule="evenodd" clip-rule="evenodd" d="M17.4557 8.67583L17.5552 8.68011C17.5863 8.66846 17.6142 8.62784 17.6079 8.5796C17.6014 8.52872 17.5757 8.52229 17.5425 8.49723C17.554 8.39029 17.7671 8.18726 17.638 8.1411C17.6266 8.137 17.6139 8.13593 17.6016 8.13725C17.4407 8.15495 17.4836 8.37436 17.4842 8.49377C17.4522 8.51549 17.4204 8.52059 17.4108 8.5745C17.4026 8.62079 17.4263 8.66279 17.4557 8.67583Z" fill="#3D418F"/>
<path fill-rule="evenodd" clip-rule="evenodd" d="M17.4026 8.9541L17.5905 8.96223L17.5948 8.89087L17.4014 8.88281C17.4064 8.90183 17.4028 8.93042 17.4026 8.9541Z" fill="#F3D67C"/>
<path fill-rule="evenodd" clip-rule="evenodd" d="M17.4551 8.69858L17.5541 8.70299L17.5551 8.68006L17.4556 8.67578C17.4624 8.68624 17.4567 8.67471 17.4614 8.68976C17.4589 8.69279 17.4599 8.696 17.4551 8.69858Z" fill="#F3D67C"/>
<path fill-rule="evenodd" clip-rule="evenodd" d="M3.8784 9.27618C3.92828 9.27247 3.95838 9.21207 4.00832 9.17183C4.04945 9.1387 4.09718 9.09449 4.14322 9.07428C4.33649 8.881 4.59224 9.0921 4.78936 9.34785C4.78451 9.14424 4.80359 8.72406 4.77966 8.66789C4.60799 8.26559 4.34777 8.21578 4.13535 8.43273C4.08503 8.44596 3.90907 8.6546 3.86876 8.76103C3.85869 8.92792 3.90107 9.08561 3.8784 9.27618Z" fill="#3C489A"/>
<path fill-rule="evenodd" clip-rule="evenodd" d="M3.74609 9.00162C3.74609 9.00162 4.06331 10.4676 3.98887 10.9934L4.44488 11.0071C4.44488 11.0071 4.37788 9.09817 4.24569 8.8916C4.24569 8.8916 3.89377 8.91125 3.74609 9.00162ZM4.9919 12.9565C4.94139 12.9555 4.74195 10.9819 4.74195 10.9819L4.44425 10.9899C4.44425 10.9899 4.55232 12.6839 4.35854 13.0718C4.35854 13.0718 4.77665 13.1063 4.9919 12.9565Z" fill="#FFCE3E"/>
<path fill-rule="evenodd" clip-rule="evenodd" d="M3.79688 12.9785C3.8783 13.084 4.28161 13.1296 4.36461 13.0687C4.57741 12.9126 4.80708 11.1658 4.51311 11.0013L4.77358 10.9806C4.77358 10.9806 5.05717 8.866 4.98839 9.02074C4.98839 9.02074 4.34068 8.82488 4.16157 8.89831C4.27714 9.56152 4.36008 10.2933 4.44346 10.9882L3.99047 10.9773C3.99047 10.9773 3.87264 13.1178 3.79688 12.9785Z" fill="#F5863C"/>
<path fill-rule="evenodd" clip-rule="evenodd" d="M3.99959 10.8672C4.30301 10.9208 4.55492 10.922 4.86174 10.8918C4.85626 11.0254 4.85078 11.159 4.84531 11.2925C4.54994 11.2572 4.28614 11.2357 3.9739 11.2557C3.9727 11.1229 3.97465 10.9999 3.99959 10.8672Z" fill="#3C489A"/>
<path fill-rule="evenodd" clip-rule="evenodd" d="M4.78307 10.8712L5.3491 10.5742L5.23751 10.8453L5.55485 10.9203L4.91809 11.0847L5.48299 11.174L5.22869 11.2592L5.3913 11.4364L4.76562 11.2888C4.76562 11.2888 4.82281 11.0987 4.78307 10.8712Z" fill="#3C489A"/>
<path fill-rule="evenodd" clip-rule="evenodd" d="M4.53517 10.72C4.34989 10.7129 4.19352 10.8584 4.18584 11.0449C4.17822 11.2313 4.32218 11.3883 4.50746 11.3953C4.6928 11.4025 4.84917 11.257 4.85685 11.0705C4.86447 10.884 4.72045 10.7271 4.53517 10.72Z" fill="#EE3C41"/>
<path fill-rule="evenodd" clip-rule="evenodd" d="M4.18557 11.0557C4.18355 11.2375 4.32563 11.3888 4.50751 11.3957C4.68932 11.4027 4.8433 11.2628 4.85621 11.0813L4.18557 11.0557Z" fill="#CF3539"/>
<path fill-rule="evenodd" clip-rule="evenodd" d="M4.60768 10.839C4.51026 10.8353 4.42807 10.9117 4.42398 11.0098C4.42001 11.1078 4.49571 11.1903 4.59307 11.194C4.69049 11.1977 4.77274 11.1213 4.77677 11.0232C4.7808 10.9251 4.70504 10.8427 4.60768 10.839Z" fill="#C2344A"/>
<path fill-rule="evenodd" clip-rule="evenodd" d="M2.99728 8.18338L6.3996 7.98438C6.31433 8.45292 6.30828 8.7537 5.81341 8.78368L2.40391 8.98306L2.31152 8.98848C2.33873 8.46476 2.49309 8.21285 2.99728 8.18338Z" fill="#3C489A"/>
</svg>
