<svg width="57" height="56" viewBox="0 0 57 56" fill="none" xmlns="http://www.w3.org/2000/svg">
<circle cx="28.5" cy="28" r="27" stroke="#DADADA" stroke-width="2"/>
<path d="M17 35.1731C17.0009 36.1261 17.3799 37.0398 18.0538 37.7137C18.7277 38.3876 19.6414 38.7666 20.5944 38.7675H37.4056C38.3586 38.7666 39.2723 38.3876 39.9462 37.7137C40.6201 37.0398 40.9991 36.1261 41 35.1731V25.0596C40.9988 24.1059 40.6191 23.1916 39.9443 22.5177C39.2695 21.8437 38.3548 21.4651 37.4011 21.4651C37.0445 21.4663 36.6946 21.3676 36.3912 21.1802C36.0878 20.9927 35.8429 20.7241 35.6843 20.4047L34.9766 18.987C34.6801 18.3883 34.2217 17.8848 33.6534 17.5335C33.0851 17.1823 32.4297 16.9975 31.7617 17H26.2383C25.5703 16.9975 24.9149 17.1823 24.3466 17.5335C23.7783 17.8848 23.3199 18.3883 23.0234 18.987L22.3157 20.4047C22.1567 20.7247 21.9111 20.9937 21.6068 21.1812C21.3025 21.3686 20.9518 21.467 20.5944 21.4651C19.6414 21.466 18.7277 21.845 18.0538 22.5189C17.3799 23.1928 17.0009 24.1065 17 25.0596V35.1731ZM18.6744 25.0596C18.6747 24.8071 18.7247 24.5572 18.8216 24.3241C18.9185 24.091 19.0603 23.8793 19.239 23.701C19.4177 23.5227 19.6298 23.3814 19.8631 23.285C20.0964 23.1887 20.3465 23.1393 20.5989 23.1396C21.2669 23.1421 21.9223 22.9573 22.4906 22.6061C23.0589 22.2548 23.5173 21.7513 23.8138 21.1526L24.5215 19.7349C24.6801 19.4155 24.925 19.1469 25.2284 18.9594C25.5318 18.772 25.8817 18.6733 26.2383 18.6744H31.7617C32.1184 18.6734 32.4684 18.7723 32.7718 18.9599C33.0752 19.1475 33.32 19.4164 33.4785 19.736L34.1862 21.1526C34.4836 21.7515 34.9429 22.255 35.5119 22.6062C36.0809 22.9574 36.7369 23.1422 37.4056 23.1396C37.9147 23.1399 38.4029 23.3422 38.7629 23.7022C39.1229 24.0622 39.3253 24.5504 39.3256 25.0596V35.1731C39.3253 35.6822 39.1229 36.1704 38.7629 36.5304C38.4029 36.8904 37.9147 37.0928 37.4056 37.093H20.5944C20.0853 37.0928 19.5971 36.8904 19.2371 36.5304C18.8771 36.1704 18.6747 35.6822 18.6744 35.1731V25.0596Z" fill="white"/>
<path d="M29.0001 24.8141C29.8075 24.8111 30.5985 25.0423 31.2772 25.4797C31.9559 25.9172 32.4932 26.542 32.824 27.2786C33.1548 28.0152 33.2649 28.8319 33.1409 29.6298C33.017 30.4277 32.6643 31.1725 32.1256 31.7741L31.8421 29.8764C31.8258 29.7676 31.7883 29.6631 31.7316 29.5689C31.675 29.4746 31.6003 29.3924 31.5119 29.327C31.4235 29.2616 31.323 29.2142 31.2163 29.1877C31.1096 29.1611 30.9987 29.1557 30.8899 29.172C30.7811 29.1883 30.6766 29.2258 30.5824 29.2825C30.4881 29.3391 30.4059 29.4138 30.3405 29.5022C30.2751 29.5907 30.2278 29.6911 30.2012 29.7978C30.1746 29.9045 30.1693 30.0154 30.1855 30.1242L30.6856 33.4507V33.4686C30.7008 33.5709 30.7353 33.6694 30.7872 33.7588C30.7872 33.7655 30.7984 33.7677 30.8028 33.7744C30.8684 33.8776 30.9561 33.9649 31.0596 34.0301C31.0881 34.0487 31.1175 34.0658 31.1478 34.0814C31.2573 34.1396 31.3788 34.1717 31.5027 34.1752H31.5117H31.5184C31.5576 34.1754 31.5968 34.1727 31.6356 34.1674C31.7201 34.151 31.8015 34.1212 31.8767 34.0792C31.8946 34.0714 31.9135 34.0792 31.9303 34.0647L31.947 34.0535C33.0547 33.403 33.918 32.4065 34.404 31.2174C34.89 30.0284 34.9719 28.7125 34.6371 27.4723C34.3022 26.2322 33.5691 25.1364 32.5506 24.3536C31.5321 23.5707 30.2846 23.1442 29.0001 23.1396C28.778 23.1396 28.5651 23.2279 28.4081 23.3849C28.251 23.5419 28.1628 23.7548 28.1628 23.9769C28.1628 24.1989 28.251 24.4118 28.4081 24.5689C28.5651 24.7259 28.778 24.8141 29.0001 24.8141Z" fill="white"/>
<path d="M29 34.8595C29.2221 34.8595 29.435 34.7713 29.592 34.6143C29.749 34.4573 29.8372 34.2443 29.8372 34.0223C29.8372 33.8002 29.749 33.5873 29.592 33.4303C29.435 33.2733 29.2221 33.1851 29 33.1851C28.1926 33.1881 27.4016 32.9568 26.7229 32.5194C26.0441 32.082 25.5069 31.4571 25.1761 30.7205C24.8453 29.9839 24.7352 29.1672 24.8591 28.3693C24.9831 27.5714 25.3358 26.8266 25.8745 26.2251L26.158 28.1227C26.1879 28.3209 26.2877 28.5017 26.4395 28.6326C26.5912 28.7634 26.7848 28.8356 26.9852 28.836C27.0274 28.8364 27.0695 28.8334 27.1113 28.8271C27.3307 28.7938 27.5279 28.6748 27.6597 28.4963C27.7915 28.3179 27.8472 28.0944 27.8145 27.8749L27.3145 24.5484V24.5305C27.3027 24.488 27.2874 24.4466 27.2687 24.4066C27.2564 24.3472 27.2369 24.2894 27.2106 24.2347L27.2028 24.2247C27.1701 24.1782 27.1327 24.1352 27.0912 24.0963C27.0596 24.0561 27.0245 24.0187 26.9863 23.9847C26.9651 23.9702 26.9394 23.9646 26.9171 23.9512C26.8483 23.9055 26.773 23.8705 26.6938 23.8474C26.6734 23.8463 26.6529 23.8463 26.6324 23.8474C26.5448 23.8282 26.4546 23.8241 26.3656 23.8351H26.3645C26.3313 23.8447 26.2989 23.8566 26.2674 23.8708H26.2495C26.1874 23.884 26.127 23.9046 26.0698 23.9322L26.0531 23.9434C24.9443 24.5934 24.08 25.59 23.5932 26.7795C23.1064 27.969 23.0242 29.2856 23.3592 30.5265C23.6942 31.7673 24.4278 32.8637 25.4471 33.6466C26.4664 34.4296 27.7148 34.8557 29 34.8595Z" fill="white"/>
</svg>
