<svg width="16" height="16" viewBox="0 0 16 16" fill="none" xmlns="http://www.w3.org/2000/svg">
<g clip-path="url(#clip0_50_155398)">
<path d="M7.99945 15.2008C11.9758 15.2008 15.1991 11.9772 15.1991 8.00079C15.1991 4.02433 11.9758 0.800781 7.99945 0.800781C4.0232 0.800781 0.799805 4.02433 0.799805 8.00079C0.799805 11.9772 4.0232 15.2008 7.99945 15.2008Z" fill="#F5F5F5"/>
<path d="M0.799805 7.99822C0.799805 11.094 2.75361 13.7331 5.49525 14.7504V1.24609C2.75361 2.26337 0.799805 4.90251 0.799805 7.99822Z" fill="#22EA7E"/>
<path d="M15.1994 7.99822C15.1994 4.90251 13.2455 2.26337 10.5039 1.24609V14.7504C13.2455 13.7331 15.1994 11.094 15.1994 7.99822Z" fill="#22EA7E"/>
</g>
<rect x="0.5" y="0.5" width="15" height="15" rx="7.5" stroke="white"/>
<defs>
<clipPath id="clip0_50_155398">
<rect width="16" height="16" rx="8" fill="white"/>
</clipPath>
</defs>
</svg>
