<svg width="24" height="24" viewBox="0 0 24 24" fill="none" xmlns="http://www.w3.org/2000/svg">
<path d="M19.4976 7.20155L12.5024 3.13551C12.3496 3.04674 12.1763 3 12 3C11.8236 3 11.6503 3.04674 11.4976 3.13551L4.50238 7.20155C4.34955 7.29038 4.22264 7.41817 4.13445 7.57205C4.04626 7.72594 3.99989 7.90049 4 8.07815V16.2082C3.99989 16.3859 4.04626 16.5604 4.13445 16.7143C4.22264 16.8682 4.34955 16.996 4.50238 17.0848L11.4976 21.1509C11.6503 21.2396 11.8236 21.2864 12 21.2864C12.1763 21.2864 12.3496 21.2396 12.5024 21.1509L19.4976 17.0848C19.6504 16.996 19.7773 16.8682 19.8655 16.7143C19.9537 16.5604 20.0001 16.3859 19.9999 16.2082V8.07747C19.9999 7.89993 19.9535 7.72552 19.8653 7.57176C19.7771 7.41801 19.6503 7.29033 19.4976 7.20155Z" fill="#3A94E7"/>
<path d="M12.5024 21.1502L19.4976 17.0842C19.6504 16.9953 19.7773 16.8675 19.8655 16.7137C19.9537 16.5598 20.0001 16.3852 20 16.2076V8.0775C20.0001 7.89984 19.9537 7.72529 19.8655 7.5714C19.7773 7.41752 19.6504 7.28974 19.4976 7.20091L12.5024 3.13486C12.3496 3.04631 12.1763 2.9998 12 3V21.2857C12.1764 21.2857 12.3496 21.239 12.5024 21.1502Z" fill="#2A7DF3"/>
<path d="M15.3496 11.5826L12.8384 7.79028C12.7464 7.65145 12.6218 7.53767 12.4756 7.45908C12.3294 7.38048 12.1661 7.33952 12.0004 7.33985C11.835 7.33986 11.6721 7.38098 11.5263 7.45955C11.3805 7.53813 11.2562 7.65173 11.1644 7.79028L8.65115 11.5826C8.54113 11.7487 8.48242 11.9439 8.48242 12.1436C8.48242 12.3433 8.54113 12.5385 8.65115 12.7046L11.1624 16.4969C11.2543 16.6357 11.379 16.7495 11.5252 16.8281C11.6714 16.9067 11.8346 16.9476 12.0004 16.9473C12.1658 16.9473 12.3286 16.9062 12.4745 16.8276C12.6203 16.749 12.7446 16.6354 12.8363 16.4969L15.3496 12.7046C15.4596 12.5385 15.5183 12.3433 15.5183 12.1436C15.5183 11.9439 15.4596 11.7487 15.3496 11.5826Z" fill="#D0EFFF"/>
<path d="M12 16.9473C12.1654 16.9473 12.3283 16.9062 12.4741 16.8276C12.6199 16.749 12.7442 16.6354 12.836 16.4969L15.3492 12.7046C15.4592 12.5385 15.518 12.3433 15.518 12.1436C15.518 11.9439 15.4592 11.7487 15.3492 11.5826L12.838 7.79028C12.746 7.65145 12.6214 7.53767 12.4752 7.45908C12.329 7.38048 12.1657 7.33952 12 7.33985V16.9473Z" fill="#8AC7FF"/>
</svg>
